<svg xmlns="http://www.w3.org/2000/svg" viewBox="0 0 800 1200" width="800" height="1200" preserveAspectRatio="xMidYMid slice">
  <defs>
    <linearGradient id="bg-grad" x1="0" y1="0" x2="0" y2="1">
      <stop offset="0%" stop-color="#f4f8f2"/>
      <stop offset="55%" stop-color="#e8f0e4"/>
      <stop offset="100%" stop-color="#dbe8d3"/>
    </linearGradient>
    <linearGradient id="mount-1" x1="0" y1="0" x2="0" y2="1">
      <stop offset="0%" stop-color="#b8d4c0"/>
      <stop offset="100%" stop-color="#98bfa4"/>
    </linearGradient>
    <linearGradient id="mount-2" x1="0" y1="0" x2="0" y2="1">
      <stop offset="0%" stop-color="#a8c8b0" stop-opacity="0.6"/>
      <stop offset="100%" stop-color="#94b89e" stop-opacity="0.75"/>
    </linearGradient>
  </defs>

  <rect width="800" height="1200" fill="url(#bg-grad)"/>

  <g stroke="#6d8f5a" fill="none" opacity="0.85">
    <path d="M55,0 Q75,110 105,260 T165,555" stroke-width="1.5"/>
    <path d="M20,25 Q35,140 75,320 T150,625" stroke-width="1.2" opacity="0.78"/>
    <path d="M95,0 Q105,130 135,280 T190,500" stroke-width="1.3" opacity="0.82"/>
    <path d="M35,0 Q52,95 78,215 T125,430" stroke-width="1.1" opacity="0.72"/>
  </g>

  <g fill="#7fa26a" opacity="0.9">
    <ellipse cx="70" cy="95" rx="12" ry="2.6" transform="rotate(-30 70 95)"/>
    <ellipse cx="85" cy="155" rx="13" ry="2.8" transform="rotate(-35 85 155)"/>
    <ellipse cx="107" cy="215" rx="12" ry="2.6" transform="rotate(-25 107 215)"/>
    <ellipse cx="95" cy="260" rx="14" ry="3" transform="rotate(-40 95 260)"/>
    <ellipse cx="120" cy="310" rx="13" ry="2.7" transform="rotate(-30 120 310)"/>
    <ellipse cx="135" cy="370" rx="12" ry="2.6" transform="rotate(-20 135 370)"/>
    <ellipse cx="155" cy="425" rx="14" ry="3" transform="rotate(-25 155 425)"/>
    <ellipse cx="140" cy="485" rx="12" ry="2.6" transform="rotate(-35 140 485)"/>
    <ellipse cx="170" cy="530" rx="13" ry="2.8" transform="rotate(-15 170 530)"/>
    <ellipse cx="46" cy="180" rx="11" ry="2.4" transform="rotate(-45 46 180)"/>
    <ellipse cx="62" cy="235" rx="12" ry="2.6" transform="rotate(-30 62 235)"/>
    <ellipse cx="40" cy="340" rx="12" ry="2.6" transform="rotate(-50 40 340)"/>
    <ellipse cx="52" cy="400" rx="13" ry="2.7" transform="rotate(-35 52 400)"/>
    <ellipse cx="76" cy="460" rx="12" ry="2.6" transform="rotate(-25 76 460)"/>
    <ellipse cx="105" cy="520" rx="13" ry="2.7" transform="rotate(-40 105 520)"/>
    <ellipse cx="188" cy="595" rx="12" ry="2.6" transform="rotate(-15 188 595)"/>
  </g>

  <g stroke="#a8c4b0" fill="none" stroke-width="1.3" opacity="0.55">
    <path d="M470,215 c 7,-5 20,-5 27,0 c 6,-5 22,-5 28,0 c 6,-5 20,-5 27,0"/>
    <path d="M610,305 c 6,-5 18,-5 24,0 c 6,-5 20,-5 26,0"/>
    <path d="M375,400 c 7,-5 20,-5 27,0 c 6,-5 22,-5 28,0"/>
    <path d="M565,495 c 6,-5 18,-5 24,0 c 6,-5 20,-5 26,0"/>
    <path d="M280,590 c 7,-5 20,-5 27,0 c 6,-5 22,-5 28,0"/>
    <path d="M650,635 c 6,-5 18,-5 24,0"/>
    <path d="M420,700 c 6,-5 18,-5 24,0 c 6,-5 20,-5 26,0"/>
  </g>

  <g opacity="0.55">
    <path d="M0,780 Q70,715 155,735 Q240,725 310,755 Q400,715 495,745 Q590,725 670,750 Q740,730 800,740 L800,850 L0,850 Z" fill="url(#mount-2)"/>
  </g>
  <g opacity="0.85">
    <path d="M0,830 Q95,760 215,795 Q305,780 400,810 Q495,780 615,815 Q705,800 800,825 L800,920 L0,920 Z" fill="url(#mount-1)"/>
  </g>

  <g stroke="#98bfa4" fill="none" stroke-width="1.2" opacity="0.55">
    <path d="M0,975 c 35,-7 70,-7 105,0 c 35,7 70,7 105,0 c 35,-7 70,-7 105,0 c 35,7 70,7 105,0 c 35,-7 70,-7 105,0 c 35,7 70,7 105,0 c 35,-7 70,-7 105,0"/>
    <path d="M25,1015 c 35,-6 70,-6 105,0 c 35,6 70,6 105,0 c 35,-6 70,-6 105,0 c 35,6 70,6 105,0 c 35,-6 70,-6 105,0"/>
    <path d="M0,1060 c 35,-7 70,-7 105,0 c 35,7 70,7 105,0 c 35,-7 70,-7 105,0"/>
    <path d="M285,1095 c 35,-6 70,-6 105,0 c 35,6 70,6 105,0"/>
  </g>

  <g transform="translate(330,1005) rotate(-6)" opacity="0.92">
    <ellipse cx="0" cy="0" rx="32" ry="10" fill="#faeadb"/>
    <ellipse cx="-9" cy="-2" rx="8" ry="5" fill="#c94a3a" opacity="0.9"/>
    <ellipse cx="11" cy="0" rx="6" ry="3.5" fill="#c94a3a" opacity="0.9"/>
    <path d="M25,0 Q39,-10 44,-5 Q46,0 44,5 Q39,10 25,0" fill="#faeadb"/>
    <path d="M0,8 Q5,16 12,12 L3,7 Z" fill="#f5dcc7" opacity="0.85"/>
    <circle cx="-23" cy="-2" r="1.6" fill="#3a2820"/>
  </g>

  <g transform="translate(500,930)">
    <ellipse cx="140" cy="150" rx="135" ry="80" fill="#5a7846" opacity="0.88"/>
    <g stroke="#3f5a30" fill="none" stroke-width="1.2" opacity="0.5">
      <path d="M140,80 L140,220"/>
      <path d="M140,150 L25,105"/>
      <path d="M140,150 L250,110"/>
      <path d="M140,150 L55,200"/>
      <path d="M140,150 L230,205"/>
      <path d="M140,150 L95,90"/>
      <path d="M140,150 L190,85"/>
    </g>
    <ellipse cx="230" cy="195" rx="80" ry="50" fill="#6a8955" opacity="0.85"/>
    <ellipse cx="55" cy="205" rx="62" ry="40" fill="#4d6a3b" opacity="0.9"/>

    <g transform="translate(135,60)">
      <ellipse cx="-32" cy="10" rx="16" ry="34" fill="#f4c2d0" opacity="0.85" transform="rotate(-22)"/>
      <ellipse cx="32" cy="10" rx="16" ry="34" fill="#f4c2d0" opacity="0.85" transform="rotate(22)"/>
      <ellipse cx="0" cy="-15" rx="16" ry="34" fill="#f4c2d0" opacity="0.85"/>
      <ellipse cx="-18" cy="16" rx="13" ry="27" fill="#f8cede" opacity="0.95" transform="rotate(-14)"/>
      <ellipse cx="18" cy="16" rx="13" ry="27" fill="#f8cede" opacity="0.95" transform="rotate(14)"/>
      <ellipse cx="0" cy="6" rx="13" ry="27" fill="#fbdde5" opacity="0.95"/>
      <ellipse cx="0" cy="12" rx="8" ry="6" fill="#f2e2a0"/>
      <circle cx="-3" cy="9" r="1.2" fill="#c8a640"/>
      <circle cx="3" cy="10" r="1.2" fill="#c8a640"/>
      <circle cx="0" cy="14" r="1.2" fill="#c8a640"/>
      <circle cx="-2" cy="13" r="1" fill="#c8a640"/>
      <circle cx="2" cy="9" r="1" fill="#c8a640"/>
    </g>

    <g transform="translate(235,105)">
      <ellipse cx="0" cy="0" rx="10" ry="25" fill="#b8ce9c" opacity="0.95"/>
      <ellipse cx="0" cy="-7" rx="7.5" ry="18" fill="#f4c2d0" opacity="0.9"/>
      <ellipse cx="0" cy="-13" rx="4.5" ry="9" fill="#fbdde5" opacity="0.9"/>
    </g>

    <g stroke="#4a6836" fill="none" stroke-width="2.2" opacity="0.75">
      <path d="M135,60 Q140,150 148,205"/>
      <path d="M235,105 Q240,160 245,200"/>
    </g>
  </g>
</svg>
