<svg xmlns="http://www.w3.org/2000/svg" viewBox="0 0 600 400" width="600" height="400">
  <defs>
    <linearGradient id="forest" x1="0" y1="0" x2="0" y2="1">
      <stop offset="0%" stop-color="#fff0d6"/>
      <stop offset="60%" stop-color="#e7c98e"/>
      <stop offset="100%" stop-color="#8a6c4a"/>
    </linearGradient>
  </defs>
  <rect width="600" height="400" fill="url(#forest)"/>
  <g fill="#2a1f12" opacity="0.85">
    <rect x="20" y="40" width="14" height="360"/>
    <rect x="90" y="20" width="18" height="380"/>
    <rect x="170" y="50" width="12" height="350"/>
    <rect x="500" y="30" width="16" height="370"/>
    <rect x="570" y="60" width="14" height="340"/>
  </g>
  <g fill="#3a2918" opacity="0.6">
    <rect x="240" y="80" width="10" height="320"/>
    <rect x="380" y="100" width="12" height="300"/>
    <rect x="440" y="70" width="10" height="330"/>
  </g>
  <g fill="#1a1208" transform="translate(285,240)">
    <ellipse cx="0" cy="75" rx="15" ry="28"/>
    <rect x="-5" y="20" width="10" height="58" rx="3"/>
    <circle cx="0" cy="12" r="9"/>
    <ellipse cx="26" cy="73" rx="14" ry="30"/>
    <rect x="21" y="14" width="10" height="62" rx="3"/>
    <circle cx="26" cy="6" r="9"/>
  </g>
  <g fill="#fff5d6" opacity="0.4">
    <circle cx="350" cy="120" r="3"/><circle cx="200" cy="160" r="2"/>
    <circle cx="450" cy="180" r="2.5"/><circle cx="120" cy="220" r="2"/>
  </g>
</svg>
