<svg xmlns="http://www.w3.org/2000/svg" viewBox="0 0 600 400" width="600" height="400">
  <defs>
    <linearGradient id="night" x1="0" y1="0" x2="0" y2="1">
      <stop offset="0%" stop-color="#10182f"/>
      <stop offset="60%" stop-color="#2a1f3d"/>
      <stop offset="100%" stop-color="#4a2c4f"/>
    </linearGradient>
  </defs>
  <rect width="600" height="400" fill="url(#night)"/>
  <g fill="#ffeec2">
    <circle cx="80" cy="60" r="1.5"/><circle cx="160" cy="100" r="1"/><circle cx="240" cy="50" r="1.5"/>
    <circle cx="320" cy="90" r="1"/><circle cx="400" cy="40" r="2"/><circle cx="480" cy="80" r="1"/>
    <circle cx="540" cy="130" r="1.5"/><circle cx="120" cy="140" r="1"/><circle cx="50" cy="170" r="1"/>
    <circle cx="200" cy="180" r="1.5"/><circle cx="360" cy="160" r="1"/><circle cx="460" cy="200" r="1"/>
  </g>
  <polygon points="0,310 100,260 200,290 320,240 420,280 540,250 600,270 600,400 0,400" fill="#0a0815"/>
  <g fill="#0a0815" transform="translate(270,255)">
    <ellipse cx="0" cy="68" rx="14" ry="22"/>
    <rect x="-6" y="20" width="12" height="55" rx="4"/>
    <circle cx="0" cy="14" r="9"/>
    <ellipse cx="24" cy="65" rx="13" ry="23"/>
    <rect x="18" y="14" width="12" height="58" rx="4"/>
    <circle cx="24" cy="8" r="9"/>
  </g>
</svg>
