<svg xmlns="http://www.w3.org/2000/svg" viewBox="0 0 600 400" width="600" height="400">
  <defs>
    <linearGradient id="garden" x1="0" y1="0" x2="0" y2="1">
      <stop offset="0%" stop-color="#dff0d8"/>
      <stop offset="80%" stop-color="#7fa07a"/>
      <stop offset="100%" stop-color="#5d7e58"/>
    </linearGradient>
  </defs>
  <rect width="600" height="400" fill="url(#garden)"/>
  <g fill="#f8c7d8" opacity="0.95">
    <circle cx="80" cy="100" r="18"/><circle cx="120" cy="80" r="16"/>
    <circle cx="500" cy="120" r="20"/><circle cx="540" cy="100" r="14"/>
    <circle cx="200" cy="60" r="12"/><circle cx="430" cy="55" r="14"/>
  </g>
  <g fill="#fff5d6" opacity="0.95">
    <circle cx="100" cy="110" r="10"/><circle cx="520" cy="130" r="10"/>
    <circle cx="60" cy="180" r="12"/><circle cx="555" cy="180" r="11"/>
  </g>
  <g stroke="#3e5e3a" stroke-width="3" fill="none" opacity="0.7">
    <path d="M80,400 Q90,250 100,110"/>
    <path d="M500,400 Q510,260 520,130"/>
    <path d="M60,400 Q65,290 60,180"/>
  </g>
  <g fill="#241a14" transform="translate(285,225)">
    <ellipse cx="0" cy="80" rx="16" ry="28"/>
    <rect x="-6" y="22" width="12" height="62" rx="4"/>
    <circle cx="0" cy="14" r="10"/>
    <ellipse cx="28" cy="78" rx="15" ry="30"/>
    <rect x="22" y="16" width="12" height="65" rx="4"/>
    <circle cx="28" cy="8" r="10"/>
  </g>
</svg>
